<svg width="64" height="64" viewBox="0 0 64 64" xmlns="http://www.w3.org/2000/svg" xmlns:xlink="http://www.w3.org/1999/xlink"><title>Share Icon</title><defs><path id="a" d="M4.762 0H26.19c2.63 0 4.762 2.092 4.762 4.67v44.363c0 2.58-2.13 4.67-4.762 4.67H4.762c-2.63 0-4.762-2.09-4.762-4.67V4.67C0 2.092 2.13 0 4.762 0z"/></defs><g fill="none" fill-rule="evenodd"><g transform="rotate(-180 27.5 30.5)"><use xlink:href="#a"/><use stroke="#C8C9CA" stroke-width="2" stroke-linecap="round" stroke-linejoin="round" xlink:href="#a"/></g><path d="M55 51H24.048M55 18H24.048M33.42 13h11.906" stroke="#C8C9CA" stroke-width="1.786" stroke-linecap="round" stroke-linejoin="round"/><path d="M38.183 56.125c0-.644.534-1.167 1.19-1.167.658 0 1.19.523 1.19 1.167 0 .645-.532 1.168-1.19 1.168-.656 0-1.19-.523-1.19-1.168z" stroke="#C8C9CA" stroke-width="1.786" stroke-linejoin="round"/><g><path d="M10.357 32.3c0 1.49-1.2 2.7-2.678 2.7C6.2 35 5 33.79 5 32.3c0-1.49 1.2-2.7 2.68-2.7 1.477 0 2.677 1.21 2.677 2.7z" stroke="#EE6123" stroke-width="2" stroke-linejoin="round"/><path d="M43.143 32.2c0 1.987-1.6 3.6-3.572 3.6-1.97 0-3.57-1.613-3.57-3.6s1.6-3.6 3.57-3.6c1.973 0 3.573 1.613 3.573 3.6z" fill="#EE6123"/><path d="M11 32.6h29.03" stroke="#EE6123" stroke-width="2" stroke-linecap="round"/></g></g></svg>